<svg width="302" height="37" viewBox="0 0 302 37" fill="none" xmlns="http://www.w3.org/2000/svg">
<path d="M4.55381 36C3.30581 36 2.34581 35.664 1.67381 34.992C1.00181 34.32 0.665813 33.36 0.665813 32.112V6.048C0.665813 4.8 1.00181 3.84 1.67381 3.168C2.34581 2.496 3.30581 2.16 4.55381 2.16H13.9138C19.7058 2.16 24.1698 3.632 27.3058 6.576C30.4738 9.488 32.0578 13.648 32.0578 19.056C32.0578 21.776 31.6418 24.192 30.8098 26.304C30.0098 28.384 28.8418 30.144 27.3058 31.584C25.7698 33.024 23.8818 34.128 21.6418 34.896C19.4018 35.632 16.8258 36 13.9138 36H4.55381ZM8.10581 29.904H13.4818C15.3058 29.904 16.8898 29.68 18.2338 29.232C19.5778 28.784 20.6978 28.112 21.5938 27.216C22.4898 26.32 23.1618 25.2 23.6098 23.856C24.0578 22.48 24.2818 20.88 24.2818 19.056C24.2818 15.408 23.3698 12.704 21.5458 10.944C19.7538 9.152 17.0658 8.256 13.4818 8.256H8.10581V29.904ZM49.4537 36.528C46.6697 36.528 44.2697 36.032 42.2537 35.04C40.2697 34.016 38.7337 32.592 37.6457 30.768C36.5897 28.912 36.0617 26.736 36.0617 24.24C36.0617 21.808 36.5737 19.68 37.5977 17.856C38.6217 16 40.0457 14.56 41.8697 13.536C43.7257 12.48 45.8217 11.952 48.1577 11.952C49.8537 11.952 51.3897 12.24 52.7657 12.816C54.1417 13.36 55.3257 14.16 56.3177 15.216C57.3097 16.24 58.0617 17.504 58.5737 19.008C59.0857 20.48 59.3417 22.128 59.3417 23.952C59.3417 24.56 59.1497 25.024 58.7657 25.344C58.3817 25.632 57.8217 25.776 57.0857 25.776H42.0137V22.032H54.1097L53.3417 22.704C53.3417 21.392 53.1497 20.304 52.7657 19.44C52.3817 18.544 51.8217 17.872 51.0857 17.424C50.3817 16.976 49.5017 16.752 48.4457 16.752C47.2617 16.752 46.2537 17.024 45.4217 17.568C44.5897 18.112 43.9497 18.896 43.5017 19.92C43.0537 20.944 42.8297 22.176 42.8297 23.616V24C42.8297 26.432 43.3897 28.224 44.5097 29.376C45.6617 30.528 47.3577 31.104 49.5977 31.104C50.3657 31.104 51.2457 31.008 52.2377 30.816C53.2297 30.624 54.1577 30.32 55.0217 29.904C55.7577 29.552 56.4137 29.44 56.9897 29.568C57.5657 29.664 58.0137 29.92 58.3337 30.336C58.6537 30.752 58.8297 31.232 58.8617 31.776C58.9257 32.32 58.8137 32.864 58.5257 33.408C58.2377 33.92 57.7577 34.352 57.0857 34.704C55.9977 35.312 54.7657 35.76 53.3897 36.048C52.0457 36.368 50.7337 36.528 49.4537 36.528ZM73.1196 36.432C72.1916 36.432 71.3756 36.192 70.6716 35.712C69.9676 35.2 69.4076 34.448 68.9916 33.456L61.7436 16.752C61.3916 15.92 61.2636 15.152 61.3596 14.448C61.4556 13.712 61.7916 13.136 62.3676 12.72C62.9756 12.272 63.8076 12.048 64.8636 12.048C65.7276 12.048 66.4316 12.256 66.9756 12.672C67.5196 13.056 67.9996 13.808 68.4156 14.928L74.0796 29.328H72.5436L78.4476 14.88C78.8956 13.792 79.3916 13.056 79.9356 12.672C80.4796 12.256 81.2316 12.048 82.1916 12.048C83.0236 12.048 83.6796 12.272 84.1596 12.72C84.6716 13.136 84.9756 13.696 85.0716 14.4C85.1996 15.104 85.0716 15.872 84.6876 16.704L77.2956 33.456C76.8796 34.48 76.3196 35.232 75.6156 35.712C74.9436 36.192 74.1116 36.432 73.1196 36.432Z" fill="#C1121F"/>
<path d="M101.496 36.528C100.152 36.528 98.7762 36.416 97.3682 36.192C95.9922 36 94.6642 35.712 93.3842 35.328C92.1362 34.944 91.0162 34.464 90.0242 33.888C89.3202 33.504 88.8242 33.008 88.5362 32.4C88.2482 31.76 88.1362 31.12 88.2002 30.48C88.2962 29.84 88.5362 29.28 88.9202 28.8C89.3362 28.288 89.8482 27.968 90.4562 27.84C91.0962 27.68 91.8002 27.792 92.5682 28.176C93.8802 28.912 95.3042 29.456 96.8402 29.808C98.4082 30.16 99.9602 30.336 101.496 30.336C103.832 30.336 105.496 29.984 106.488 29.28C107.48 28.544 107.976 27.632 107.976 26.544C107.976 25.616 107.624 24.88 106.92 24.336C106.216 23.792 104.984 23.328 103.224 22.944L97.8002 21.792C94.7282 21.152 92.4402 20.064 90.9362 18.528C89.4642 16.96 88.7282 14.912 88.7282 12.384C88.7282 10.784 89.0642 9.328 89.7362 8.016C90.4082 6.704 91.3522 5.568 92.5682 4.608C93.7842 3.648 95.2242 2.912 96.8882 2.4C98.5842 1.888 100.44 1.632 102.456 1.632C104.248 1.632 106.008 1.856 107.736 2.304C109.464 2.72 110.984 3.344 112.296 4.176C112.936 4.56 113.368 5.056 113.592 5.664C113.848 6.24 113.928 6.832 113.832 7.44C113.768 8.016 113.528 8.528 113.112 8.976C112.728 9.424 112.232 9.712 111.624 9.84C111.016 9.968 110.28 9.824 109.416 9.408C108.36 8.864 107.24 8.464 106.056 8.208C104.872 7.952 103.656 7.824 102.408 7.824C101.064 7.824 99.9122 8 98.9522 8.352C98.0242 8.704 97.3042 9.2 96.7922 9.84C96.3122 10.48 96.0722 11.216 96.0722 12.048C96.0722 12.976 96.4082 13.728 97.0802 14.304C97.7522 14.88 98.9202 15.344 100.584 15.696L106.008 16.848C109.144 17.52 111.48 18.608 113.016 20.112C114.552 21.584 115.32 23.536 115.32 25.968C115.32 27.568 115 29.024 114.36 30.336C113.72 31.616 112.792 32.72 111.576 33.648C110.36 34.576 108.904 35.296 107.208 35.808C105.512 36.288 103.608 36.528 101.496 36.528ZM130.854 36.528C128.326 36.528 126.118 36.032 124.23 35.04C122.374 34.048 120.934 32.624 119.91 30.768C118.886 28.912 118.374 26.72 118.374 24.192C118.374 22.304 118.662 20.608 119.238 19.104C119.814 17.6 120.646 16.32 121.734 15.264C122.854 14.176 124.182 13.36 125.718 12.816C127.254 12.24 128.966 11.952 130.854 11.952C133.382 11.952 135.574 12.448 137.43 13.44C139.318 14.432 140.774 15.84 141.798 17.664C142.854 19.488 143.382 21.664 143.382 24.192C143.382 26.112 143.078 27.824 142.47 29.328C141.894 30.832 141.062 32.128 139.974 33.216C138.886 34.304 137.558 35.136 135.99 35.712C134.454 36.256 132.742 36.528 130.854 36.528ZM130.854 31.104C131.91 31.104 132.822 30.848 133.59 30.336C134.358 29.824 134.966 29.072 135.414 28.08C135.862 27.056 136.086 25.76 136.086 24.192C136.086 21.856 135.606 20.144 134.646 19.056C133.686 17.936 132.422 17.376 130.854 17.376C129.83 17.376 128.918 17.616 128.118 18.096C127.35 18.576 126.742 19.328 126.294 20.352C125.878 21.344 125.67 22.624 125.67 24.192C125.67 26.528 126.15 28.272 127.11 29.424C128.07 30.544 129.318 31.104 130.854 31.104ZM156.288 36.528C153.44 36.528 151.312 35.744 149.904 34.176C148.496 32.576 147.792 30.208 147.792 27.072V5.424C147.792 4.208 148.096 3.296 148.704 2.688C149.344 2.048 150.256 1.728 151.44 1.728C152.592 1.728 153.472 2.048 154.08 2.688C154.72 3.296 155.04 4.208 155.04 5.424V26.784C155.04 28.096 155.312 29.072 155.856 29.712C156.432 30.32 157.184 30.624 158.112 30.624C158.368 30.624 158.608 30.608 158.832 30.576C159.056 30.544 159.296 30.528 159.552 30.528C160.064 30.464 160.416 30.624 160.608 31.008C160.832 31.36 160.944 32.08 160.944 33.168C160.944 34.128 160.752 34.864 160.368 35.376C159.984 35.856 159.392 36.176 158.592 36.336C158.272 36.368 157.904 36.4 157.488 36.432C157.072 36.496 156.672 36.528 156.288 36.528ZM172.464 36.528C170.48 36.528 168.832 36.16 167.52 35.424C166.208 34.688 165.232 33.584 164.592 32.112C163.984 30.608 163.68 28.752 163.68 26.544V15.696C163.68 14.48 163.984 13.568 164.592 12.96C165.232 12.352 166.128 12.048 167.28 12.048C168.432 12.048 169.328 12.352 169.968 12.96C170.608 13.568 170.928 14.48 170.928 15.696V26.736C170.928 28.144 171.216 29.2 171.792 29.904C172.368 30.576 173.28 30.912 174.528 30.912C175.904 30.912 177.024 30.432 177.888 29.472C178.784 28.48 179.232 27.184 179.232 25.584V15.696C179.232 14.48 179.536 13.568 180.144 12.96C180.784 12.352 181.68 12.048 182.832 12.048C184.016 12.048 184.912 12.352 185.52 12.96C186.16 13.568 186.48 14.48 186.48 15.696V32.736C186.48 35.2 185.312 36.432 182.976 36.432C181.824 36.432 180.944 36.112 180.336 35.472C179.728 34.832 179.424 33.92 179.424 32.736V29.52L180.144 31.392C179.44 33.024 178.432 34.288 177.12 35.184C175.808 36.08 174.256 36.528 172.464 36.528ZM203.657 36.528C201.449 36.528 199.593 36.16 198.089 35.424C196.617 34.688 195.513 33.616 194.777 32.208C194.073 30.8 193.721 29.024 193.721 26.88V17.856H191.705C190.809 17.856 190.105 17.616 189.593 17.136C189.113 16.656 188.873 16 188.873 15.168C188.873 14.272 189.113 13.6 189.593 13.152C190.105 12.672 190.809 12.432 191.705 12.432H193.721V8.784C193.721 7.568 194.041 6.656 194.681 6.048C195.321 5.408 196.217 5.088 197.369 5.088C198.553 5.088 199.449 5.408 200.057 6.048C200.665 6.656 200.969 7.568 200.969 8.784V12.432H205.529C206.425 12.432 207.113 12.672 207.593 13.152C208.073 13.6 208.313 14.272 208.313 15.168C208.313 16 208.073 16.656 207.593 17.136C207.113 17.616 206.425 17.856 205.529 17.856H200.969V26.592C200.969 27.936 201.273 28.944 201.881 29.616C202.521 30.288 203.529 30.624 204.905 30.624C205.385 30.624 205.833 30.576 206.249 30.48C206.665 30.384 207.049 30.32 207.401 30.288C207.849 30.256 208.217 30.4 208.505 30.72C208.793 31.008 208.937 31.664 208.937 32.688C208.937 33.456 208.809 34.128 208.553 34.704C208.297 35.28 207.849 35.696 207.209 35.952C206.793 36.112 206.217 36.24 205.481 36.336C204.777 36.464 204.169 36.528 203.657 36.528ZM215.893 36.384C214.709 36.384 213.797 36.048 213.157 35.376C212.549 34.672 212.245 33.696 212.245 32.448V16.032C212.245 14.752 212.549 13.776 213.157 13.104C213.797 12.4 214.709 12.048 215.893 12.048C217.045 12.048 217.925 12.4 218.533 13.104C219.173 13.776 219.493 14.752 219.493 16.032V32.448C219.493 33.696 219.189 34.672 218.581 35.376C217.973 36.048 217.077 36.384 215.893 36.384ZM215.893 8.112C214.549 8.112 213.509 7.808 212.773 7.2C212.069 6.56 211.717 5.664 211.717 4.512C211.717 3.328 212.069 2.432 212.773 1.824C213.509 1.184 214.549 0.863997 215.893 0.863997C217.237 0.863997 218.261 1.184 218.965 1.824C219.669 2.432 220.021 3.328 220.021 4.512C220.021 5.664 219.669 6.56 218.965 7.2C218.261 7.808 217.237 8.112 215.893 8.112ZM236.417 36.528C233.889 36.528 231.681 36.032 229.793 35.04C227.937 34.048 226.497 32.624 225.473 30.768C224.449 28.912 223.937 26.72 223.937 24.192C223.937 22.304 224.225 20.608 224.801 19.104C225.377 17.6 226.209 16.32 227.297 15.264C228.417 14.176 229.745 13.36 231.281 12.816C232.817 12.24 234.529 11.952 236.417 11.952C238.945 11.952 241.137 12.448 242.993 13.44C244.881 14.432 246.337 15.84 247.361 17.664C248.417 19.488 248.945 21.664 248.945 24.192C248.945 26.112 248.641 27.824 248.033 29.328C247.457 30.832 246.625 32.128 245.537 33.216C244.449 34.304 243.121 35.136 241.553 35.712C240.017 36.256 238.305 36.528 236.417 36.528ZM236.417 31.104C237.473 31.104 238.385 30.848 239.153 30.336C239.921 29.824 240.529 29.072 240.977 28.08C241.425 27.056 241.649 25.76 241.649 24.192C241.649 21.856 241.169 20.144 240.209 19.056C239.249 17.936 237.985 17.376 236.417 17.376C235.393 17.376 234.481 17.616 233.681 18.096C232.913 18.576 232.305 19.328 231.857 20.352C231.441 21.344 231.233 22.624 231.233 24.192C231.233 26.528 231.713 28.272 232.673 29.424C233.633 30.544 234.881 31.104 236.417 31.104ZM257.002 36.432C255.818 36.432 254.906 36.112 254.266 35.472C253.658 34.832 253.354 33.92 253.354 32.736V15.696C253.354 14.512 253.658 13.616 254.266 13.008C254.906 12.368 255.786 12.048 256.906 12.048C258.058 12.048 258.938 12.368 259.546 13.008C260.154 13.616 260.458 14.512 260.458 15.696V18.432L259.93 16.848C260.666 15.28 261.754 14.08 263.194 13.248C264.666 12.384 266.33 11.952 268.186 11.952C270.074 11.952 271.626 12.32 272.842 13.056C274.058 13.76 274.97 14.848 275.578 16.32C276.186 17.76 276.49 19.6 276.49 21.84V32.736C276.49 33.92 276.17 34.832 275.53 35.472C274.922 36.112 274.026 36.432 272.842 36.432C271.69 36.432 270.794 36.112 270.154 35.472C269.546 34.832 269.242 33.92 269.242 32.736V22.176C269.242 20.544 268.938 19.376 268.33 18.672C267.754 17.936 266.858 17.568 265.642 17.568C264.106 17.568 262.874 18.048 261.946 19.008C261.05 19.968 260.602 21.248 260.602 22.848V32.736C260.602 35.2 259.402 36.432 257.002 36.432ZM290.925 36.528C289.517 36.528 288.061 36.4 286.557 36.144C285.085 35.888 283.741 35.456 282.525 34.848C281.885 34.528 281.421 34.128 281.133 33.648C280.877 33.136 280.765 32.624 280.797 32.112C280.829 31.6 280.989 31.136 281.277 30.72C281.597 30.304 281.997 30.032 282.477 29.904C282.989 29.744 283.549 29.792 284.157 30.048C285.469 30.592 286.669 30.976 287.757 31.2C288.845 31.424 289.917 31.536 290.973 31.536C292.349 31.536 293.341 31.328 293.949 30.912C294.589 30.464 294.909 29.888 294.909 29.184C294.909 28.544 294.701 28.064 294.285 27.744C293.869 27.424 293.261 27.2 292.461 27.072L287.421 26.16C285.437 25.808 283.901 25.088 282.813 24C281.757 22.88 281.229 21.456 281.229 19.728C281.229 18.128 281.677 16.752 282.573 15.6C283.469 14.416 284.701 13.52 286.269 12.912C287.869 12.272 289.677 11.952 291.693 11.952C293.133 11.952 294.461 12.08 295.677 12.336C296.893 12.592 298.061 13.008 299.181 13.584C299.757 13.872 300.157 14.256 300.381 14.736C300.637 15.216 300.717 15.712 300.621 16.224C300.557 16.736 300.365 17.2 300.045 17.616C299.725 18.032 299.309 18.304 298.797 18.432C298.317 18.56 297.757 18.496 297.117 18.24C296.093 17.76 295.149 17.424 294.285 17.232C293.421 17.008 292.589 16.896 291.789 16.896C290.349 16.896 289.309 17.136 288.669 17.616C288.029 18.064 287.709 18.64 287.709 19.344C287.709 19.888 287.885 20.352 288.237 20.736C288.621 21.088 289.197 21.328 289.965 21.456L295.005 22.368C297.085 22.72 298.669 23.424 299.757 24.48C300.845 25.504 301.389 26.912 301.389 28.704C301.389 31.136 300.429 33.056 298.509 34.464C296.621 35.84 294.093 36.528 290.925 36.528Z" fill="#669BBC"/>
</svg>
