<svg width="115" height="92" viewBox="0 0 115 92" fill="none" xmlns="http://www.w3.org/2000/svg">
<path id="Vector" d="M25.7411 39.6779L23.5094 48.0099C22.9685 50.0313 22.8571 52.1229 23.0764 54.1893L16.7514 59.3965C15.5709 60.3686 13.8208 59.3193 14.1244 57.8207L16.8988 44.0424C17.0892 43.0973 16.4208 42.1953 15.4613 42.1036L1.47098 40.747C-0.05095 40.5997 -0.546882 38.6213 0.727087 37.775L12.4336 29.9947C13.235 29.461 13.4003 28.3506 12.7894 27.6067L3.85721 16.7519C2.88511 15.5714 3.93447 13.823 5.43484 14.1249L19.2131 16.8992C20.1583 17.0897 21.0603 16.4213 21.1537 15.4618L22.5103 1.47149C22.6577 -0.0522425 24.636 -0.546376 25.4841 0.72759L33.2645 12.4323C33.7982 13.2337 34.9086 13.399 35.6525 12.788L46.5055 3.8559C47.6861 2.88381 49.4344 3.93317 49.1325 5.43174L47.0967 15.5228C46.6097 16.0709 46.121 16.6171 45.6754 17.2119L39.8985 24.9329L37.9741 27.506C32.093 29.0801 27.3403 33.7106 25.7411 39.6779ZM114.608 63.4879L112.376 71.8181C111.814 73.9169 110.691 75.7011 109.223 77.0937C108.734 77.5563 108.208 77.977 107.649 78.3515L105.135 87.7364C104.93 88.5037 104.578 89.1919 104.12 89.7812C102.742 91.5493 100.393 92.419 98.0932 91.8027L92.5391 90.3149C89.4719 89.4937 87.6517 86.3403 88.4728 83.273L89.9606 77.719L45.528 65.8131L44.0402 71.3671C43.2191 74.4343 40.0656 76.2546 36.9984 75.4334L31.4443 73.9456C29.1443 73.3293 27.5451 71.4013 27.2361 69.1822C27.1336 68.4419 27.1732 67.6692 27.378 66.9038L29.8918 57.5188C29.5945 56.9147 29.3486 56.2866 29.1569 55.6411C28.5819 53.7023 28.5011 51.5946 29.0635 49.4959L31.2952 41.1639C32.2493 37.6061 34.7739 34.9055 37.9238 33.5794C38.9829 33.1331 40.1027 32.8472 41.2461 32.7313L44.5038 28.3775L50.2807 20.6564C50.9006 19.8281 51.5726 19.0573 52.2932 18.3493C53.7307 16.9316 55.3532 15.7546 57.098 14.8436C57.9712 14.3872 58.8751 13.9973 59.8022 13.6775C61.6584 13.0342 63.6098 12.6659 65.5953 12.5922C67.5808 12.5185 69.6041 12.7395 71.6022 13.275L93.646 19.1812C95.6441 19.7167 97.5056 20.5361 99.1893 21.5944C101.702 23.172 103.831 25.2897 105.423 27.7935C107.007 30.2876 108.053 33.1553 108.42 36.2369L109.562 45.8123L110.208 51.2119C112.073 52.559 113.496 54.4312 114.294 56.5898C115.082 58.7245 115.244 61.1161 114.608 63.4879ZM45.9251 42.109C42.592 41.216 39.7781 42.835 38.8869 46.1573C37.9956 49.4797 39.6254 52.2882 42.9567 53.1812C46.2899 54.0742 51.1396 55.9681 52.029 52.6458C52.9203 49.3234 49.2565 43.0021 45.9251 42.109ZM98.1435 47.1708L97.0007 37.5953C96.8965 36.7203 96.6611 35.8829 96.3143 35.1049C95.2721 32.7708 93.2237 30.9704 90.6686 30.2858L68.6248 24.3795C66.9597 23.9335 65.1992 23.9965 63.5703 24.5605C61.9413 25.1245 60.5188 26.1636 59.486 27.5438L53.7091 35.2648L84.615 43.5447L98.1435 47.1708ZM101.466 56.9905C98.1327 56.0975 91.7988 59.7415 90.9094 63.0621C90.0199 66.3845 95.1661 67.1697 98.4993 68.0627C101.832 68.9558 104.646 67.3368 105.538 64.0144C106.427 60.6938 104.799 57.8836 101.466 56.9905Z" fill="#C1121F"/>
</svg>
