<svg width="21" height="20" viewBox="0 0 21 20" fill="none" xmlns="http://www.w3.org/2000/svg">
<path d="M18.2944 0H2.46012C1.88746 0 1.33826 0.225765 0.933324 0.627628C0.528392 1.02949 0.300903 1.57454 0.300903 2.14286L0.300903 17.8571C0.300903 18.4255 0.528392 18.9705 0.933324 19.3724C1.33826 19.7742 1.88746 20 2.46012 20H8.63414V13.2004H5.80016V10H8.63414V7.56071C8.63414 4.78616 10.2985 3.25357 12.8478 3.25357C14.0686 3.25357 15.3453 3.46964 15.3453 3.46964V6.19286H13.9386C12.5527 6.19286 12.1204 7.04643 12.1204 7.92188V10H15.2144L14.7195 13.2004H12.1204V20H18.2944C18.8671 20 19.4163 19.7742 19.8212 19.3724C20.2261 18.9705 20.4536 18.4255 20.4536 17.8571V2.14286C20.4536 1.57454 20.2261 1.02949 19.8212 0.627628C19.4163 0.225765 18.8671 0 18.2944 0Z" fill="#669BBC"/>
</svg>
