<svg width="127" height="30" viewBox="0 0 127 30" fill="none" xmlns="http://www.w3.org/2000/svg">
<rect x="1" y="1" width="28.0772" height="28" rx="4" fill="#F4F4F4" stroke="#767676" stroke-width="2"/>
<path d="M6.64158 20C6.25158 20 5.95158 19.895 5.74158 19.685C5.53158 19.475 5.42658 19.175 5.42658 18.785V10.64C5.42658 10.25 5.53158 9.95 5.74158 9.74C5.95158 9.53 6.25158 9.425 6.64158 9.425H9.56658C11.3766 9.425 12.7716 9.885 13.7516 10.805C14.7416 11.715 15.2366 13.015 15.2366 14.705C15.2366 15.555 15.1066 16.31 14.8466 16.97C14.5966 17.62 14.2316 18.17 13.7516 18.62C13.2716 19.07 12.6816 19.415 11.9816 19.655C11.2816 19.885 10.4766 20 9.56658 20H6.64158ZM7.75158 18.095H9.43158C10.0016 18.095 10.4966 18.025 10.9166 17.885C11.3366 17.745 11.6866 17.535 11.9666 17.255C12.2466 16.975 12.4566 16.625 12.5966 16.205C12.7366 15.775 12.8066 15.275 12.8066 14.705C12.8066 13.565 12.5216 12.72 11.9516 12.17C11.3916 11.61 10.5516 11.33 9.43158 11.33H7.75158V18.095ZM20.8228 20.165C20.4028 20.165 19.9728 20.13 19.5328 20.06C19.1028 20 18.6878 19.91 18.2878 19.79C17.8978 19.67 17.5478 19.52 17.2378 19.34C17.0178 19.22 16.8628 19.065 16.7728 18.875C16.6828 18.675 16.6478 18.475 16.6678 18.275C16.6978 18.075 16.7728 17.9 16.8928 17.75C17.0228 17.59 17.1828 17.49 17.3728 17.45C17.5728 17.4 17.7928 17.435 18.0328 17.555C18.4428 17.785 18.8878 17.955 19.3678 18.065C19.8578 18.175 20.3428 18.23 20.8228 18.23C21.5528 18.23 22.0728 18.12 22.3828 17.9C22.6928 17.67 22.8478 17.385 22.8478 17.045C22.8478 16.755 22.7378 16.525 22.5178 16.355C22.2978 16.185 21.9128 16.04 21.3628 15.92L19.6678 15.56C18.7078 15.36 17.9928 15.02 17.5228 14.54C17.0628 14.05 16.8328 13.41 16.8328 12.62C16.8328 12.12 16.9378 11.665 17.1478 11.255C17.3578 10.845 17.6528 10.49 18.0328 10.19C18.4128 9.89 18.8628 9.66 19.3828 9.5C19.9128 9.34 20.4928 9.26 21.1228 9.26C21.6828 9.26 22.2328 9.33 22.7728 9.47C23.3128 9.6 23.7878 9.795 24.1978 10.055C24.3978 10.175 24.5328 10.33 24.6028 10.52C24.6828 10.7 24.7078 10.885 24.6778 11.075C24.6578 11.255 24.5828 11.415 24.4528 11.555C24.3328 11.695 24.1778 11.785 23.9878 11.825C23.7978 11.865 23.5678 11.82 23.2978 11.69C22.9678 11.52 22.6178 11.395 22.2478 11.315C21.8778 11.235 21.4978 11.195 21.1078 11.195C20.6878 11.195 20.3278 11.25 20.0278 11.36C19.7378 11.47 19.5128 11.625 19.3528 11.825C19.2028 12.025 19.1278 12.255 19.1278 12.515C19.1278 12.805 19.2328 13.04 19.4428 13.22C19.6528 13.4 20.0178 13.545 20.5378 13.655L22.2328 14.015C23.2128 14.225 23.9428 14.565 24.4228 15.035C24.9028 15.495 25.1428 16.105 25.1428 16.865C25.1428 17.365 25.0428 17.82 24.8428 18.23C24.6428 18.63 24.3528 18.975 23.9728 19.265C23.5928 19.555 23.1378 19.78 22.6078 19.94C22.0778 20.09 21.4828 20.165 20.8228 20.165Z" fill="#767676"/>
<path d="M37.0782 20C36.7142 20 36.4342 19.902 36.2382 19.706C36.0422 19.51 35.9442 19.23 35.9442 18.866V11.264C35.9442 10.9 36.0422 10.62 36.2382 10.424C36.4342 10.228 36.7142 10.13 37.0782 10.13H39.8082C41.4975 10.13 42.7995 10.5593 43.7142 11.418C44.6382 12.2673 45.1002 13.4807 45.1002 15.058C45.1002 15.8513 44.9789 16.556 44.7362 17.172C44.5029 17.7787 44.1622 18.292 43.7142 18.712C43.2662 19.132 42.7155 19.454 42.0622 19.678C41.4089 19.8927 40.6575 20 39.8082 20H37.0782ZM38.1142 18.222H39.6822C40.2142 18.222 40.6762 18.1567 41.0682 18.026C41.4602 17.8953 41.7869 17.6993 42.0482 17.438C42.3095 17.1767 42.5055 16.85 42.6362 16.458C42.7669 16.0567 42.8322 15.59 42.8322 15.058C42.8322 13.994 42.5662 13.2053 42.0342 12.692C41.5115 12.1693 40.7275 11.908 39.6822 11.908H38.1142V18.222ZM50.174 20.154C49.362 20.154 48.662 20.0093 48.074 19.72C47.4953 19.4213 47.0473 19.006 46.73 18.474C46.422 17.9327 46.268 17.298 46.268 16.57C46.268 15.8607 46.4173 15.24 46.716 14.708C47.0147 14.1667 47.43 13.7467 47.962 13.448C48.5033 13.14 49.1147 12.986 49.796 12.986C50.2907 12.986 50.7387 13.07 51.14 13.238C51.5413 13.3967 51.8867 13.63 52.176 13.938C52.4653 14.2367 52.6847 14.6053 52.834 15.044C52.9833 15.4733 53.058 15.954 53.058 16.486C53.058 16.6633 53.002 16.7987 52.89 16.892C52.778 16.976 52.6147 17.018 52.4 17.018H48.004V15.926H51.532L51.308 16.122C51.308 15.7393 51.252 15.422 51.14 15.17C51.028 14.9087 50.8647 14.7127 50.65 14.582C50.4447 14.4513 50.188 14.386 49.88 14.386C49.5347 14.386 49.2407 14.4653 48.998 14.624C48.7553 14.7827 48.5687 15.0113 48.438 15.31C48.3073 15.6087 48.242 15.968 48.242 16.388V16.5C48.242 17.2093 48.4053 17.732 48.732 18.068C49.068 18.404 49.5627 18.572 50.216 18.572C50.44 18.572 50.6967 18.544 50.986 18.488C51.2753 18.432 51.546 18.3433 51.798 18.222C52.0127 18.1193 52.204 18.0867 52.372 18.124C52.54 18.152 52.6707 18.2267 52.764 18.348C52.8573 18.4693 52.9087 18.6093 52.918 18.768C52.9367 18.9267 52.904 19.0853 52.82 19.244C52.736 19.3933 52.596 19.5193 52.4 19.622C52.0827 19.7993 51.7233 19.93 51.322 20.014C50.93 20.1073 50.5473 20.154 50.174 20.154ZM57.0765 20.126C56.8059 20.126 56.5679 20.056 56.3625 19.916C56.1572 19.7667 55.9939 19.5473 55.8725 19.258L53.7585 14.386C53.6559 14.1433 53.6185 13.9193 53.6465 13.714C53.6745 13.4993 53.7725 13.3313 53.9405 13.21C54.1179 13.0793 54.3605 13.014 54.6685 13.014C54.9205 13.014 55.1259 13.0747 55.2845 13.196C55.4432 13.308 55.5832 13.5273 55.7045 13.854L57.3565 18.054H56.9085L58.6305 13.84C58.7612 13.5227 58.9059 13.308 59.0645 13.196C59.2232 13.0747 59.4425 13.014 59.7225 13.014C59.9652 13.014 60.1565 13.0793 60.2965 13.21C60.4459 13.3313 60.5345 13.4947 60.5625 13.7C60.5999 13.9053 60.5625 14.1293 60.4505 14.372L58.2945 19.258C58.1732 19.5567 58.0099 19.776 57.8045 19.916C57.6085 20.056 57.3659 20.126 57.0765 20.126ZM65.3531 20.154C64.9611 20.154 64.5597 20.1213 64.1491 20.056C63.7477 20 63.3604 19.916 62.9871 19.804C62.6231 19.692 62.2964 19.552 62.0071 19.384C61.8017 19.272 61.6571 19.1273 61.5731 18.95C61.4891 18.7633 61.4564 18.5767 61.4751 18.39C61.5031 18.2033 61.5731 18.04 61.6851 17.9C61.8064 17.7507 61.9557 17.6573 62.1331 17.62C62.3197 17.5733 62.5251 17.606 62.7491 17.718C63.1317 17.9327 63.5471 18.0913 63.9951 18.194C64.4524 18.2967 64.9051 18.348 65.3531 18.348C66.0344 18.348 66.5197 18.2453 66.8091 18.04C67.0984 17.8253 67.2431 17.5593 67.2431 17.242C67.2431 16.9713 67.1404 16.7567 66.9351 16.598C66.7297 16.4393 66.3704 16.304 65.8571 16.192L64.2751 15.856C63.3791 15.6693 62.7117 15.352 62.2731 14.904C61.8437 14.4467 61.6291 13.8493 61.6291 13.112C61.6291 12.6453 61.7271 12.2207 61.9231 11.838C62.1191 11.4553 62.3944 11.124 62.7491 10.844C63.1037 10.564 63.5237 10.3493 64.0091 10.2C64.5037 10.0507 65.0451 9.976 65.6331 9.976C66.1557 9.976 66.6691 10.0413 67.1731 10.172C67.6771 10.2933 68.1204 10.4753 68.5031 10.718C68.6897 10.83 68.8157 10.9747 68.8811 11.152C68.9557 11.32 68.9791 11.4927 68.9511 11.67C68.9324 11.838 68.8624 11.9873 68.7411 12.118C68.6291 12.2487 68.4844 12.3327 68.3071 12.37C68.1297 12.4073 67.9151 12.3653 67.6631 12.244C67.3551 12.0853 67.0284 11.9687 66.6831 11.894C66.3377 11.8193 65.9831 11.782 65.6191 11.782C65.2271 11.782 64.8911 11.8333 64.6111 11.936C64.3404 12.0387 64.1304 12.1833 63.9811 12.37C63.8411 12.5567 63.7711 12.7713 63.7711 13.014C63.7711 13.2847 63.8691 13.504 64.0651 13.672C64.2611 13.84 64.6017 13.9753 65.0871 14.078L66.6691 14.414C67.5837 14.61 68.2651 14.9273 68.7131 15.366C69.1611 15.7953 69.3851 16.3647 69.3851 17.074C69.3851 17.5407 69.2917 17.9653 69.1051 18.348C68.9184 18.7213 68.6477 19.0433 68.2931 19.314C67.9384 19.5847 67.5137 19.7947 67.0191 19.944C66.5244 20.084 65.9691 20.154 65.3531 20.154ZM73.9158 20.154C73.1785 20.154 72.5345 20.0093 71.9838 19.72C71.4425 19.4307 71.0225 19.0153 70.7238 18.474C70.4251 17.9327 70.2758 17.2933 70.2758 16.556C70.2758 16.0053 70.3598 15.5107 70.5278 15.072C70.6958 14.6333 70.9385 14.26 71.2558 13.952C71.5825 13.6347 71.9698 13.3967 72.4178 13.238C72.8658 13.07 73.3651 12.986 73.9158 12.986C74.6531 12.986 75.2925 13.1307 75.8338 13.42C76.3845 13.7093 76.8091 14.12 77.1078 14.652C77.4158 15.184 77.5698 15.8187 77.5698 16.556C77.5698 17.116 77.4811 17.6153 77.3038 18.054C77.1358 18.4927 76.8931 18.8707 76.5758 19.188C76.2585 19.5053 75.8711 19.748 75.4138 19.916C74.9658 20.0747 74.4665 20.154 73.9158 20.154ZM73.9158 18.572C74.2238 18.572 74.4898 18.4973 74.7138 18.348C74.9378 18.1987 75.1151 17.9793 75.2458 17.69C75.3765 17.3913 75.4418 17.0133 75.4418 16.556C75.4418 15.8747 75.3018 15.3753 75.0218 15.058C74.7418 14.7313 74.3731 14.568 73.9158 14.568C73.6171 14.568 73.3511 14.638 73.1178 14.778C72.8938 14.918 72.7165 15.1373 72.5858 15.436C72.4645 15.7253 72.4038 16.0987 72.4038 16.556C72.4038 17.2373 72.5438 17.746 72.8238 18.082C73.1038 18.4087 73.4678 18.572 73.9158 18.572ZM81.3339 20.154C80.5033 20.154 79.8826 19.9253 79.4719 19.468C79.0613 19.0013 78.8559 18.3107 78.8559 17.396V11.082C78.8559 10.7273 78.9446 10.4613 79.1219 10.284C79.3086 10.0973 79.5746 10.004 79.9199 10.004C80.2559 10.004 80.5126 10.0973 80.6899 10.284C80.8766 10.4613 80.9699 10.7273 80.9699 11.082V17.312C80.9699 17.6947 81.0493 17.9793 81.2079 18.166C81.3759 18.3433 81.5953 18.432 81.8659 18.432C81.9406 18.432 82.0106 18.4273 82.0759 18.418C82.1413 18.4087 82.2113 18.404 82.2859 18.404C82.4353 18.3853 82.5379 18.432 82.5939 18.544C82.6593 18.6467 82.6919 18.8567 82.6919 19.174C82.6919 19.454 82.6359 19.6687 82.5239 19.818C82.4119 19.958 82.2393 20.0513 82.0059 20.098C81.9126 20.1073 81.8053 20.1167 81.6839 20.126C81.5626 20.1447 81.4459 20.154 81.3339 20.154ZM86.0521 20.154C85.4734 20.154 84.9927 20.0467 84.6101 19.832C84.2274 19.6173 83.9427 19.2953 83.7561 18.866C83.5787 18.4273 83.4901 17.886 83.4901 17.242V14.078C83.4901 13.7233 83.5787 13.4573 83.7561 13.28C83.9427 13.1027 84.2041 13.014 84.5401 13.014C84.8761 13.014 85.1374 13.1027 85.3241 13.28C85.5107 13.4573 85.6041 13.7233 85.6041 14.078V17.298C85.6041 17.7087 85.6881 18.0167 85.8561 18.222C86.0241 18.418 86.2901 18.516 86.6541 18.516C87.0554 18.516 87.3821 18.376 87.6341 18.096C87.8954 17.8067 88.0261 17.4287 88.0261 16.962V14.078C88.0261 13.7233 88.1147 13.4573 88.2921 13.28C88.4787 13.1027 88.7401 13.014 89.0761 13.014C89.4214 13.014 89.6827 13.1027 89.8601 13.28C90.0467 13.4573 90.1401 13.7233 90.1401 14.078V19.048C90.1401 19.7667 89.7994 20.126 89.1181 20.126C88.7821 20.126 88.5254 20.0327 88.3481 19.846C88.1707 19.6593 88.0821 19.3933 88.0821 19.048V18.11L88.2921 18.656C88.0867 19.132 87.7927 19.5007 87.4101 19.762C87.0274 20.0233 86.5747 20.154 86.0521 20.154ZM95.1499 20.154C94.5059 20.154 93.9645 20.0467 93.5259 19.832C93.0965 19.6173 92.7745 19.3047 92.5599 18.894C92.3545 18.4833 92.2519 17.9653 92.2519 17.34V14.708H91.6639C91.4025 14.708 91.1972 14.638 91.0479 14.498C90.9079 14.358 90.8379 14.1667 90.8379 13.924C90.8379 13.6627 90.9079 13.4667 91.0479 13.336C91.1972 13.196 91.4025 13.126 91.6639 13.126H92.2519V12.062C92.2519 11.7073 92.3452 11.4413 92.5319 11.264C92.7185 11.0773 92.9799 10.984 93.3159 10.984C93.6612 10.984 93.9225 11.0773 94.0999 11.264C94.2772 11.4413 94.3659 11.7073 94.3659 12.062V13.126H95.6959C95.9572 13.126 96.1579 13.196 96.2979 13.336C96.4379 13.4667 96.5079 13.6627 96.5079 13.924C96.5079 14.1667 96.4379 14.358 96.2979 14.498C96.1579 14.638 95.9572 14.708 95.6959 14.708H94.3659V17.256C94.3659 17.648 94.4545 17.942 94.6319 18.138C94.8185 18.334 95.1125 18.432 95.5139 18.432C95.6539 18.432 95.7845 18.418 95.9059 18.39C96.0272 18.362 96.1392 18.3433 96.2419 18.334C96.3725 18.3247 96.4799 18.3667 96.5639 18.46C96.6479 18.544 96.6899 18.7353 96.6899 19.034C96.6899 19.258 96.6525 19.454 96.5779 19.622C96.5032 19.79 96.3725 19.9113 96.1859 19.986C96.0645 20.0327 95.8965 20.07 95.6819 20.098C95.4765 20.1353 95.2992 20.154 95.1499 20.154ZM98.7188 20.112C98.3734 20.112 98.1074 20.014 97.9208 19.818C97.7434 19.6127 97.6548 19.328 97.6548 18.964V14.176C97.6548 13.8027 97.7434 13.518 97.9208 13.322C98.1074 13.1167 98.3734 13.014 98.7188 13.014C99.0548 13.014 99.3114 13.1167 99.4888 13.322C99.6754 13.518 99.7688 13.8027 99.7688 14.176V18.964C99.7688 19.328 99.6801 19.6127 99.5028 19.818C99.3254 20.014 99.0641 20.112 98.7188 20.112ZM98.7188 11.866C98.3268 11.866 98.0234 11.7773 97.8088 11.6C97.6034 11.4133 97.5008 11.152 97.5008 10.816C97.5008 10.4707 97.6034 10.2093 97.8088 10.032C98.0234 9.84533 98.3268 9.752 98.7188 9.752C99.1108 9.752 99.4094 9.84533 99.6148 10.032C99.8201 10.2093 99.9228 10.4707 99.9228 10.816C99.9228 11.152 99.8201 11.4133 99.6148 11.6C99.4094 11.7773 99.1108 11.866 98.7188 11.866ZM104.705 20.154C103.968 20.154 103.324 20.0093 102.773 19.72C102.232 19.4307 101.812 19.0153 101.513 18.474C101.214 17.9327 101.065 17.2933 101.065 16.556C101.065 16.0053 101.149 15.5107 101.317 15.072C101.485 14.6333 101.728 14.26 102.045 13.952C102.372 13.6347 102.759 13.3967 103.207 13.238C103.655 13.07 104.154 12.986 104.705 12.986C105.442 12.986 106.082 13.1307 106.623 13.42C107.174 13.7093 107.598 14.12 107.897 14.652C108.205 15.184 108.359 15.8187 108.359 16.556C108.359 17.116 108.27 17.6153 108.093 18.054C107.925 18.4927 107.682 18.8707 107.365 19.188C107.048 19.5053 106.66 19.748 106.203 19.916C105.755 20.0747 105.256 20.154 104.705 20.154ZM104.705 18.572C105.013 18.572 105.279 18.4973 105.503 18.348C105.727 18.1987 105.904 17.9793 106.035 17.69C106.166 17.3913 106.231 17.0133 106.231 16.556C106.231 15.8747 106.091 15.3753 105.811 15.058C105.531 14.7313 105.162 14.568 104.705 14.568C104.406 14.568 104.14 14.638 103.907 14.778C103.683 14.918 103.506 15.1373 103.375 15.436C103.254 15.7253 103.193 16.0987 103.193 16.556C103.193 17.2373 103.333 17.746 103.613 18.082C103.893 18.4087 104.257 18.572 104.705 18.572ZM110.709 20.126C110.364 20.126 110.098 20.0327 109.911 19.846C109.734 19.6593 109.645 19.3933 109.645 19.048V14.078C109.645 13.7327 109.734 13.4713 109.911 13.294C110.098 13.1073 110.354 13.014 110.681 13.014C111.017 13.014 111.274 13.1073 111.451 13.294C111.628 13.4713 111.717 13.7327 111.717 14.078V14.876L111.563 14.414C111.778 13.9567 112.095 13.6067 112.515 13.364C112.944 13.112 113.43 12.986 113.971 12.986C114.522 12.986 114.974 13.0933 115.329 13.308C115.684 13.5133 115.95 13.8307 116.127 14.26C116.304 14.68 116.393 15.2167 116.393 15.87V19.048C116.393 19.3933 116.3 19.6593 116.113 19.846C115.936 20.0327 115.674 20.126 115.329 20.126C114.993 20.126 114.732 20.0327 114.545 19.846C114.368 19.6593 114.279 19.3933 114.279 19.048V15.968C114.279 15.492 114.19 15.1513 114.013 14.946C113.845 14.7313 113.584 14.624 113.229 14.624C112.781 14.624 112.422 14.764 112.151 15.044C111.89 15.324 111.759 15.6973 111.759 16.164V19.048C111.759 19.7667 111.409 20.126 110.709 20.126ZM120.603 20.154C120.193 20.154 119.768 20.1167 119.329 20.042C118.9 19.9673 118.508 19.8413 118.153 19.664C117.967 19.5707 117.831 19.454 117.747 19.314C117.673 19.1647 117.64 19.0153 117.649 18.866C117.659 18.7167 117.705 18.5813 117.789 18.46C117.883 18.3387 117.999 18.2593 118.139 18.222C118.289 18.1753 118.452 18.1893 118.629 18.264C119.012 18.4227 119.362 18.5347 119.679 18.6C119.997 18.6653 120.309 18.698 120.617 18.698C121.019 18.698 121.308 18.6373 121.485 18.516C121.672 18.3853 121.765 18.2173 121.765 18.012C121.765 17.8253 121.705 17.6853 121.583 17.592C121.462 17.4987 121.285 17.4333 121.051 17.396L119.581 17.13C119.003 17.0273 118.555 16.8173 118.237 16.5C117.929 16.1733 117.775 15.758 117.775 15.254C117.775 14.7873 117.906 14.386 118.167 14.05C118.429 13.7047 118.788 13.4433 119.245 13.266C119.712 13.0793 120.239 12.986 120.827 12.986C121.247 12.986 121.635 13.0233 121.989 13.098C122.344 13.1727 122.685 13.294 123.011 13.462C123.179 13.546 123.296 13.658 123.361 13.798C123.436 13.938 123.459 14.0827 123.431 14.232C123.413 14.3813 123.357 14.5167 123.263 14.638C123.17 14.7593 123.049 14.8387 122.899 14.876C122.759 14.9133 122.596 14.8947 122.409 14.82C122.111 14.68 121.835 14.582 121.583 14.526C121.331 14.4607 121.089 14.428 120.855 14.428C120.435 14.428 120.132 14.498 119.945 14.638C119.759 14.7687 119.665 14.9367 119.665 15.142C119.665 15.3007 119.717 15.436 119.819 15.548C119.931 15.6507 120.099 15.7207 120.323 15.758L121.793 16.024C122.4 16.1267 122.862 16.332 123.179 16.64C123.497 16.9387 123.655 17.3493 123.655 17.872C123.655 18.5813 123.375 19.1413 122.815 19.552C122.265 19.9533 121.527 20.154 120.603 20.154Z" fill="#767676"/>
</svg>
