<svg width="166" height="132" viewBox="0 0 166 132" fill="none" xmlns="http://www.w3.org/2000/svg">
<rect x="18.5" y="1.5" width="129" height="129" rx="13.5" fill="#F4F4F4" stroke="#669BBC" stroke-width="3"/>
<path d="M44.1136 92C42.2936 92 40.8936 91.51 39.9136 90.53C38.9336 89.55 38.4436 88.15 38.4436 86.33V48.32C38.4436 46.5 38.9336 45.1 39.9136 44.12C40.8936 43.14 42.2936 42.65 44.1136 42.65H57.7636C66.2103 42.65 72.7203 44.7967 77.2936 49.09C81.9136 53.3367 84.2236 59.4033 84.2236 67.29C84.2236 71.2567 83.617 74.78 82.4036 77.86C81.237 80.8933 79.5336 83.46 77.2936 85.56C75.0536 87.66 72.3003 89.27 69.0336 90.39C65.767 91.4633 62.0103 92 57.7636 92H44.1136ZM49.2936 83.11H57.1336C59.7936 83.11 62.1036 82.7833 64.0636 82.13C66.0236 81.4767 67.657 80.4967 68.9636 79.19C70.2703 77.8833 71.2503 76.25 71.9036 74.29C72.557 72.2833 72.8836 69.95 72.8836 67.29C72.8836 61.97 71.5536 58.0267 68.8936 55.46C66.2803 52.8467 62.3603 51.54 57.1336 51.54H49.2936V83.11Z" fill="#780000"/>
<path d="M110.293 92.77C108.333 92.77 106.326 92.6067 104.273 92.28C102.266 92 100.329 91.58 98.4626 91.02C96.6426 90.46 95.0093 89.76 93.5626 88.92C92.536 88.36 91.8126 87.6367 91.3926 86.75C90.9726 85.8167 90.8093 84.8833 90.9026 83.95C91.0426 83.0167 91.3926 82.2 91.9526 81.5C92.5593 80.7533 93.306 80.2867 94.1926 80.1C95.126 79.8667 96.1526 80.03 97.2726 80.59C99.186 81.6633 101.263 82.4567 103.503 82.97C105.789 83.4833 108.053 83.74 110.293 83.74C113.699 83.74 116.126 83.2267 117.573 82.2C119.019 81.1267 119.743 79.7967 119.743 78.21C119.743 76.8567 119.229 75.7833 118.203 74.99C117.176 74.1967 115.379 73.52 112.813 72.96L104.903 71.28C100.423 70.3467 97.086 68.76 94.8926 66.52C92.746 64.2333 91.6726 61.2467 91.6726 57.56C91.6726 55.2267 92.1626 53.1033 93.1426 51.19C94.1226 49.2767 95.4993 47.62 97.2726 46.22C99.046 44.82 101.146 43.7467 103.573 43C106.046 42.2533 108.753 41.88 111.693 41.88C114.306 41.88 116.873 42.2067 119.393 42.86C121.913 43.4667 124.129 44.3767 126.043 45.59C126.976 46.15 127.606 46.8733 127.933 47.76C128.306 48.6 128.423 49.4633 128.283 50.35C128.189 51.19 127.839 51.9367 127.233 52.59C126.673 53.2433 125.949 53.6633 125.063 53.85C124.176 54.0367 123.103 53.8267 121.843 53.22C120.303 52.4267 118.669 51.8433 116.943 51.47C115.216 51.0967 113.443 50.91 111.623 50.91C109.663 50.91 107.983 51.1667 106.583 51.68C105.229 52.1933 104.179 52.9167 103.433 53.85C102.733 54.7833 102.383 55.8567 102.383 57.07C102.383 58.4233 102.873 59.52 103.853 60.36C104.833 61.2 106.536 61.8767 108.963 62.39L116.873 64.07C121.446 65.05 124.853 66.6367 127.093 68.83C129.333 70.9767 130.453 73.8233 130.453 77.37C130.453 79.7033 129.986 81.8267 129.053 83.74C128.119 85.6067 126.766 87.2167 124.993 88.57C123.219 89.9233 121.096 90.9733 118.623 91.72C116.149 92.42 113.373 92.77 110.293 92.77Z" fill="#669BBC"/>
</svg>
