<svg width="21" height="20" viewBox="0 0 21 20" fill="none" xmlns="http://www.w3.org/2000/svg">
<path d="M10.6538 4.87225C7.79443 4.87225 5.48805 7.16166 5.48805 10C5.48805 12.8383 7.79443 15.1277 10.6538 15.1277C13.5132 15.1277 15.8195 12.8383 15.8195 10C15.8195 7.16166 13.5132 4.87225 10.6538 4.87225ZM10.6538 13.3337C8.806 13.3337 7.29539 11.8387 7.29539 10C7.29539 8.16133 8.8015 6.6663 10.6538 6.6663C12.5061 6.6663 14.0122 8.16133 14.0122 10C14.0122 11.8387 12.5016 13.3337 10.6538 13.3337ZM17.2357 4.6625C17.2357 5.32746 16.6962 5.85853 16.0309 5.85853C15.361 5.85853 14.826 5.32299 14.826 4.6625C14.826 4.00201 15.3655 3.46647 16.0309 3.46647C16.6962 3.46647 17.2357 4.00201 17.2357 4.6625ZM20.6571 5.87638C20.5807 4.27424 20.212 2.85507 19.0296 1.68582C17.8517 0.516568 16.422 0.150619 14.808 0.070289C13.1445 -0.0234296 8.15859 -0.0234296 6.49512 0.070289C4.8856 0.146156 3.45592 0.512105 2.27351 1.68136C1.0911 2.85061 0.726931 4.26978 0.646005 5.87192C0.551592 7.52315 0.551592 12.4724 0.646005 14.1236C0.722435 15.7258 1.0911 17.1449 2.27351 18.3142C3.45592 19.4834 4.88111 19.8494 6.49512 19.9297C8.15859 20.0234 13.1445 20.0234 14.808 19.9297C16.422 19.8538 17.8517 19.4879 19.0296 18.3142C20.2075 17.1449 20.5762 15.7258 20.6571 14.1236C20.7515 12.4724 20.7515 7.52761 20.6571 5.87638ZM18.5081 15.8953C18.1574 16.7701 17.4785 17.4439 16.5928 17.7965C15.2666 18.3186 12.1194 18.1981 10.6538 18.1981C9.18815 18.1981 6.03654 18.3142 4.71476 17.7965C3.83357 17.4484 3.1547 16.7745 2.79952 15.8953C2.27351 14.5788 2.3949 11.4549 2.3949 10C2.3949 8.54513 2.278 5.41671 2.79952 4.10465C3.1502 3.22995 3.82908 2.55606 4.71476 2.2035C6.04104 1.68136 9.18815 1.80185 10.6538 1.80185C12.1194 1.80185 15.271 1.68582 16.5928 2.2035C17.474 2.5516 18.1529 3.22548 18.5081 4.10465C19.0341 5.42118 18.9127 8.54513 18.9127 10C18.9127 11.4549 19.0341 14.5833 18.5081 15.8953Z" fill="#C1121F"/>
</svg>
