<svg width="125" height="132" viewBox="0 0 125 132" fill="none" xmlns="http://www.w3.org/2000/svg">
<rect x="2.37347" y="1.5" width="120.253" height="129" rx="13.5" fill="#F4F4F4" stroke="#669BBC" stroke-width="3"/>
<path d="M23.1136 90C21.2936 90 19.8936 89.51 18.9136 88.53C17.9336 87.55 17.4436 86.15 17.4436 84.33V46.32C17.4436 44.5 17.9336 43.1 18.9136 42.12C19.8936 41.14 21.2936 40.65 23.1136 40.65H36.7636C45.2103 40.65 51.7203 42.7967 56.2936 47.09C60.9136 51.3367 63.2236 57.4033 63.2236 65.29C63.2236 69.2567 62.617 72.78 61.4036 75.86C60.237 78.8933 58.5336 81.46 56.2936 83.56C54.0536 85.66 51.3003 87.27 48.0336 88.39C44.767 89.4633 41.0103 90 36.7636 90H23.1136ZM28.2936 81.11H36.1336C38.7936 81.11 41.1036 80.7833 43.0636 80.13C45.0236 79.4767 46.657 78.4967 47.9636 77.19C49.2703 75.8833 50.2503 74.25 50.9036 72.29C51.557 70.2833 51.8836 67.95 51.8836 65.29C51.8836 59.97 50.5536 56.0267 47.8936 53.46C45.2803 50.8467 41.3603 49.54 36.1336 49.54H28.2936V81.11Z" fill="#780000"/>
<path d="M89.2926 90.77C87.3326 90.77 85.326 90.6067 83.2726 90.28C81.266 90 79.3293 89.58 77.4626 89.02C75.6426 88.46 74.0093 87.76 72.5626 86.92C71.536 86.36 70.8126 85.6367 70.3926 84.75C69.9726 83.8167 69.8093 82.8833 69.9026 81.95C70.0426 81.0167 70.3926 80.2 70.9526 79.5C71.5593 78.7533 72.306 78.2867 73.1926 78.1C74.126 77.8667 75.1526 78.03 76.2726 78.59C78.186 79.6633 80.2626 80.4567 82.5026 80.97C84.7893 81.4833 87.0526 81.74 89.2926 81.74C92.6993 81.74 95.126 81.2267 96.5726 80.2C98.0193 79.1267 98.7426 77.7967 98.7426 76.21C98.7426 74.8567 98.2293 73.7833 97.2026 72.99C96.176 72.1967 94.3793 71.52 91.8126 70.96L83.9026 69.28C79.4226 68.3467 76.086 66.76 73.8926 64.52C71.746 62.2333 70.6726 59.2467 70.6726 55.56C70.6726 53.2267 71.1626 51.1033 72.1426 49.19C73.1226 47.2767 74.4993 45.62 76.2726 44.22C78.046 42.82 80.146 41.7467 82.5726 41C85.046 40.2533 87.7526 39.88 90.6926 39.88C93.306 39.88 95.8726 40.2067 98.3926 40.86C100.913 41.4667 103.129 42.3767 105.043 43.59C105.976 44.15 106.606 44.8733 106.933 45.76C107.306 46.6 107.423 47.4633 107.283 48.35C107.189 49.19 106.839 49.9367 106.233 50.59C105.673 51.2433 104.949 51.6633 104.063 51.85C103.176 52.0367 102.103 51.8267 100.843 51.22C99.3026 50.4267 97.6693 49.8433 95.9426 49.47C94.216 49.0967 92.4426 48.91 90.6226 48.91C88.6626 48.91 86.9826 49.1667 85.5826 49.68C84.2293 50.1933 83.1793 50.9167 82.4326 51.85C81.7326 52.7833 81.3826 53.8567 81.3826 55.07C81.3826 56.4233 81.8726 57.52 82.8526 58.36C83.8326 59.2 85.536 59.8767 87.9626 60.39L95.8726 62.07C100.446 63.05 103.853 64.6367 106.093 66.83C108.333 68.9767 109.453 71.8233 109.453 75.37C109.453 77.7033 108.986 79.8267 108.053 81.74C107.119 83.6067 105.766 85.2167 103.993 86.57C102.219 87.9233 100.096 88.9733 97.6226 89.72C95.1493 90.42 92.3726 90.77 89.2926 90.77Z" fill="#669BBC"/>
</svg>
