<svg width="206" height="206" viewBox="0 0 206 206" fill="none" xmlns="http://www.w3.org/2000/svg">
<path id="Vector" d="M173.959 42.6007C146.446 21.9184 109.877 17.2107 79.4994 23.4483C45.513 -13.8474 7.42814 3.30718 0 8.23871C0 8.23871 26.1362 33.5067 21.891 55.6376C-9.05182 91.5254 5.65783 131.482 21.891 150.35C26.1362 172.481 0 197.749 0 197.749C7.35661 202.696 45.3378 219.798 79.4994 182.694C109.809 188.891 146.378 184.224 173.959 163.505C216.611 132.524 216.75 73.7402 173.959 42.5967V42.6007ZM105.21 163.305C94.5734 163.34 83.9789 161.785 73.6985 158.679L66.628 166.446C62.7006 170.78 58.3031 174.525 53.542 177.591C47.7656 180.9 41.4904 182.934 35.0485 183.585C35.4062 182.86 35.7209 182.136 36.0392 181.453C43.1133 166.533 45.0207 153.148 41.7614 141.296C30.1274 130.876 23.1642 117.558 23.1642 102.996C23.1642 69.6306 59.908 42.6007 105.21 42.6007C150.512 42.6007 187.256 69.6306 187.256 102.996C187.256 136.361 150.512 163.305 105.21 163.305ZM65.8483 117.359C62.6002 117.411 59.4664 115.996 57.1335 113.425C54.8007 110.853 53.459 107.334 53.4025 103.639C53.1522 85.1698 77.6611 84.767 77.9079 103.195V103.403C77.923 105.221 77.6229 107.024 77.0248 108.711C76.4268 110.397 75.5424 111.932 74.4224 113.229C73.3024 114.526 71.9686 115.559 70.4974 116.269C69.0262 116.979 67.4464 117.352 65.8483 117.367V117.359ZM92.2313 103.639C91.9488 85.1698 116.458 84.7263 116.74 103.154V103.403C116.88 121.745 92.5138 121.945 92.2313 103.639ZM143.509 117.359C140.261 117.411 137.127 115.997 134.793 113.425C132.46 110.853 131.117 107.334 131.06 103.639C130.813 85.1698 155.322 84.767 155.569 103.195V103.403C155.589 105.222 155.293 107.029 154.697 108.717C154.1 110.406 153.216 111.944 152.095 113.242C150.974 114.54 149.638 115.573 148.165 116.281C146.691 116.989 145.109 117.358 143.509 117.367V117.359Z" fill="#003049"/>
</svg>
